<svg xmlns="http://www.w3.org/2000/svg" viewBox="0 0 800 600">
<defs><linearGradient id="g" x1="0" y1="0" x2="1" y2="1"><stop offset="0" stop-color="#F1D7A0"/><stop offset="1" stop-color="#C6A24A"/></linearGradient></defs>
<rect width="800" height="600" fill="#172033"/>
<path d="M285 367c-40-38-43-100-7-138 30-32 77-37 112-15 17-45 73-67 119-42 52 28 65 99 25 143 33 35 27 91-12 119-44 31-111 10-135-44-24 20-68 8-102-23z" fill="none" stroke="url(#g)" stroke-width="14"/>
<circle cx="404" cy="303" r="48" fill="none" stroke="rgba(249,241,226,.42)" stroke-width="8"/>
<path d="M494 225l128-92M516 251l128-92M538 277l128-92" stroke="url(#g)" stroke-width="9" stroke-linecap="round"/>
</svg>
