<svg xmlns="http://www.w3.org/2000/svg" viewBox="0 0 240 240" role="img" aria-labelledby="title">
<title>Robert Rosina Music mark</title>
<defs>
  <linearGradient id="g" x1="0" y1="0" x2="1" y2="1">
    <stop offset="0" stop-color="#E5CA73"/>
    <stop offset="0.54" stop-color="#C6A24A"/>
    <stop offset="1" stop-color="#94732E"/>
  </linearGradient>
</defs>
<rect width="240" height="240" rx="52" fill="#0B1020"/>
<path d="M60 156c22-7 45-8 68-2 19 5 36 14 52 28" fill="none" stroke="url(#g)" stroke-width="10" stroke-linecap="round"/>
<path d="M65 120c20-8 41-9 64-4 18 4 35 12 51 24" fill="none" stroke="url(#g)" stroke-width="8" stroke-linecap="round" opacity=".82"/>
<path d="M75 86c17-7 36-8 56-4 15 3 29 9 43 18" fill="none" stroke="url(#g)" stroke-width="6" stroke-linecap="round" opacity=".64"/>
<circle cx="80" cy="161" r="16" fill="url(#g)"/>
<path d="M96 159V70c0-8 5-14 13-16l53-13c9-2 17 5 17 14v89" fill="none" stroke="url(#g)" stroke-width="12" stroke-linecap="round" stroke-linejoin="round"/>
<circle cx="179" cy="146" r="17" fill="url(#g)"/>
</svg>
